<?xml version="1.0" encoding="UTF-8"?> <svg xmlns="http://www.w3.org/2000/svg" width="491" height="80.618" viewBox="0 0 491 80.618"><g transform="translate(-44 -28)"><g transform="translate(44 28)"><path d="M40.545,234.883c0,6.463-2.469,9.519-10.811,9.519H14.807V217.607H29.733c8.108,0,10.811,2.821,10.811,9.285Zm14.807,1.528V225.717c0-13.75-6.7-21.154-24.8-21.154H0v78.269H14.807V257.447H29.85c18.215,0,25.5-7.4,25.5-21.036" transform="translate(0 -203.389)" fill="#525258"></path><path d="M264.358,234.649c0,6.581-2.585,9.519-10.695,9.519H236.977V217.608h16.687c7.874,0,10.695,2.7,10.695,9.285Zm14.807,1.293V225.717c0-13.75-6.7-21.154-24.914-21.154H222.169v78.269h14.807V256.977h14.1l17.98,25.856H286.8l-19.391-27.97c8.226-2.937,11.752-9.519,11.752-18.921" transform="translate(-84.435 -203.389)" fill="#525258"></path><path d="M475.013,228.288c0-7.991,3.408-12.222,13.75-12.222a104.057,104.057,0,0,1,21.975,2.115l1.646-12.927a95.425,95.425,0,0,0-22.446-2.585c-20.33,0-29.732,7.521-29.732,23.621v33.376c0,15.513,9.167,23.621,28.323,23.621a100.506,100.506,0,0,0,26.208-3.524V245.329H500.748v23.739a84.028,84.028,0,0,1-12.1.939c-10.341,0-13.632-4.466-13.632-12.1Z" transform="translate(-174.901 -202.669)" fill="#525258"></path><path d="M613.751,258.373c0,7.4-3.761,11.869-14.808,11.869s-14.808-4.466-14.808-11.869V227.582c0-7.4,3.761-11.869,14.808-11.869s14.808,4.466,14.808,11.869Zm14.807.822V226.76c0-13.045-7.521-24.091-29.615-24.091s-29.615,11.046-29.615,24.091V259.2c0,13.045,7.521,24.091,29.615,24.091s29.615-11.046,29.615-24.091" transform="translate(-216.374 -202.669)" fill="#525258"></path><path d="M733.064,282.832h19.744V204.563H738.353v59.465L708.62,204.563H688.878v78.269h14.454V223.485Z" transform="translate(-261.809 -203.389)" fill="#525258"></path><path d="M156.275,249.279l-14.1-44.715H121.492l-14.1,44.715h14.848l9.593-32.494,9.387,32.494Z" transform="translate(-40.815 -203.389)" fill="#7bb12d"></path><path d="M99.494,283.92l-9.167,29.071H105.84l4.935-16.217H139.8l5.054,16.217h15.512L151.2,283.92Z" transform="translate(-34.329 -233.548)" fill="#525258"></path><path d="M400.308,249.279l-14.1-44.715H365.525l-14.1,44.715h14.848l9.593-32.494,9.387,32.494Z" transform="translate(-133.56 -203.389)" fill="#7bb12d"></path><path d="M343.526,283.92l-9.167,29.071h15.513l4.935-16.217h29.029l5.053,16.217H404.4l-9.167-29.071Z" transform="translate(-127.073 -233.548)" fill="#525258"></path></g></g></svg> 